<svg width="485" height="485" viewBox="0 0 485 485" fill="none" xmlns="http://www.w3.org/2000/svg">
<path d="M238.785 63.9909C209.277 45.687 141.998 140.097 195.212 194.669C207.046 206.804 210.558 199.383 226.039 201.935C234.759 203.37 238.309 184.969 277.527 196.493C303.309 204.069 299.536 168.693 336.105 176.947C415.946 194.96 308.441 58.976 238.775 63.9909H238.785Z" fill="#19181F"/>
<path fill-rule="evenodd" clip-rule="evenodd" d="M232.315 63.7581C236.496 71.004 247.515 72.6045 257.564 69.4811C268.331 66.1346 273.918 54.4267 269.505 44.0574C266.828 37.7621 261.881 32.3398 254.489 29.4492C247.098 26.5586 238.862 29.6529 235.138 36.5884C230.414 45.3863 228.726 57.5598 232.305 63.7678L232.315 63.7581Z" fill="#19181F"/>
<path d="M221.025 141.465C220.152 137.09 218.309 133.637 215.971 131.377C212.556 128.079 208.036 127.206 203.875 129.485C201.431 130.824 199.17 133.307 197.357 137.071C198.947 138.778 200.722 139.447 202.633 139.535C206.824 131.784 213.255 134.112 215.185 141.911C217.28 142.454 219.22 142.144 221.025 141.455V141.465Z" fill="#FFF8F5"/>
<path d="M219.938 137.653C218.949 135.053 217.581 132.939 215.971 131.377C212.557 128.079 208.037 127.206 203.875 129.485C202.42 130.281 201.033 131.483 199.772 133.113C201.693 134.083 203.759 134.937 205.941 135.645C208.473 133.996 211.17 134.762 213.1 137.294C215.457 137.624 217.766 137.74 219.948 137.643L219.938 137.653Z" fill="white" stroke="#19181F" stroke-width="2.52" stroke-miterlimit="10"/>
<path fill-rule="evenodd" clip-rule="evenodd" d="M231.869 133.511C235.196 129.136 251.027 124.315 253.772 126.469C254.519 141.523 257.506 161.369 260.63 169.071C252.181 171.768 235.419 170.798 228.096 168.887C231.995 161.592 232.626 139.088 231.869 133.501V133.511Z" fill="white" stroke="#313039" stroke-width="2.52" stroke-miterlimit="10"/>
<path fill-rule="evenodd" clip-rule="evenodd" d="M215.719 105.119C211.548 103.965 207.163 106.681 205.922 111.172C204.68 115.673 207.047 120.251 211.218 121.396C215.389 122.55 219.773 119.834 221.015 115.343C222.256 110.852 219.89 106.264 215.719 105.119Z" fill="white" stroke="#313039" stroke-width="2.52" stroke-miterlimit="10"/>
<path fill-rule="evenodd" clip-rule="evenodd" d="M253.781 126.469C269.99 134.985 275.645 103.15 255.139 111.598C249.998 103.635 240.599 102.131 239.726 87.7074C236.205 87.4649 232.762 87.5231 229.405 87.9693C221.674 88.9878 215.166 94.1773 212.295 101.433C204.709 120.6 213.41 140.233 225.758 144.385C234.391 147.295 243.926 139.922 253.791 126.478L253.781 126.469Z" fill="white" stroke="#313039" stroke-width="2.52" stroke-miterlimit="10"/>
<path d="M263.743 117.632C264.257 117.933 264.907 117.768 265.218 117.254C265.518 116.739 265.353 116.09 264.839 115.779C264.645 115.663 264.442 115.556 264.238 115.459C262.802 114.761 261.231 114.528 259.727 114.945C258.234 115.352 256.846 116.39 255.77 118.204C255.634 118.427 255.508 118.67 255.382 118.922C255.207 119.242 255.188 119.64 255.382 119.979C255.673 120.493 256.332 120.668 256.846 120.377C257.487 120.008 258.088 119.766 258.651 119.62C259.213 119.475 259.747 119.446 260.222 119.494C260.814 119.562 261.338 119.135 261.406 118.544C261.473 117.952 261.047 117.428 260.455 117.36C260.135 117.321 259.815 117.312 259.475 117.331C259.737 117.186 260.009 117.069 260.29 116.992C261.26 116.72 262.308 116.895 263.297 117.37C263.443 117.438 263.588 117.515 263.743 117.612V117.632Z" fill="#19181F"/>
<path d="M254.683 127.041C255.004 126.536 254.848 125.877 254.344 125.566C253.84 125.246 253.18 125.402 252.87 125.906C251.201 128.554 249.184 131.28 246.749 133.879C244.314 136.469 241.472 138.933 238.135 141.048C237.641 141.368 237.485 142.027 237.805 142.522C238.126 143.017 238.785 143.172 239.28 142.852C242.782 140.621 245.759 138.05 248.301 135.344C250.842 132.638 252.937 129.805 254.674 127.051L254.683 127.041Z" fill="#19181F"/>
<path d="M279.845 141.125C276.906 137.003 273.385 134.277 269.922 133.035C264.849 131.202 259.766 132.405 256.517 136.712C254.606 139.234 253.422 142.862 253.296 147.605C255.741 148.623 257.894 148.497 259.912 147.702C260.639 137.73 268.389 137.148 274.015 144.326C276.44 143.909 278.303 142.697 279.855 141.135L279.845 141.125Z" fill="#FFF8F5"/>
<path d="M276.945 137.682C274.714 135.451 272.298 133.889 269.912 133.035C264.839 131.202 259.756 132.405 256.507 136.712C255.372 138.215 254.499 140.097 253.946 142.377C256.381 142.493 258.922 142.415 261.512 142.124C263.365 139.234 266.517 138.768 269.689 140.505C272.289 139.748 274.723 138.797 276.945 137.682Z" fill="white" stroke="#19181F" stroke-width="2.52" stroke-miterlimit="10"/>
<path fill-rule="evenodd" clip-rule="evenodd" d="M237.64 391.288L259.543 390.803L261.075 452.165C241.753 459.77 126.915 462.438 116.439 441.331C198.384 421.533 189.858 355.389 237.64 391.288Z" fill="white" stroke="#19181F" stroke-width="2.52" stroke-miterlimit="10"/>
<path fill-rule="evenodd" clip-rule="evenodd" d="M147.362 454.212C131.474 451.632 119.494 447.5 116.439 441.331C129.33 438.217 139.99 433.949 148.973 429.118C149.943 432.378 150.466 435.869 150.466 439.497C150.466 444.784 149.351 449.779 147.362 454.212Z" fill="white" stroke="#19181F" stroke-width="2.52" stroke-miterlimit="10"/>
<path fill-rule="evenodd" clip-rule="evenodd" d="M219.656 451.137L221.189 389.775C214.738 386.147 135.402 358.997 133.268 353.914C139.35 341.411 140.98 324.892 181.613 314.426C-21.3692 241.85 -11.708 438.227 219.656 451.128V451.137Z" fill="#19181F"/>
<path fill-rule="evenodd" clip-rule="evenodd" d="M221.005 397.186L221.189 389.785C214.738 386.157 135.402 359.007 133.268 353.924C139.35 341.42 140.98 324.901 181.613 314.435C109.425 288.623 64.1555 296.849 46.162 318.713C70.2568 359.783 137.953 390.871 221.005 397.176V397.186Z" fill="#19181F"/>
<path fill-rule="evenodd" clip-rule="evenodd" d="M256.642 447.917C243.819 432.562 167.141 393.481 171.894 369.667C178.936 334.33 275.916 316.026 303.115 324.552C455.463 270.096 505.69 401.124 364.303 440.293C335.775 448.198 301.738 449.469 256.652 447.917H256.642Z" fill="#19181F"/>
<path fill-rule="evenodd" clip-rule="evenodd" d="M184.057 392.598C175.696 384.324 170.545 376.389 171.884 369.667C178.926 334.33 275.906 316.026 303.105 324.552C373.711 299.313 422.367 313.931 440.195 340.761C403.267 375.128 332.933 398.36 252.219 398.36C228.396 398.36 205.484 396.332 184.057 392.598Z" fill="#19181F"/>
<path fill-rule="evenodd" clip-rule="evenodd" d="M243.091 390.26L221.189 389.775L219.656 451.137C238.979 458.742 353.817 461.41 364.293 440.302C282.347 420.505 290.874 354.36 243.091 390.26Z" fill="white" stroke="#19181F" stroke-width="2.52" stroke-miterlimit="10"/>
<path fill-rule="evenodd" clip-rule="evenodd" d="M333.369 453.184C349.258 450.604 361.237 446.472 364.293 440.302C351.402 437.189 340.741 432.921 331.759 428.09C330.789 431.349 330.265 434.841 330.265 438.469C330.265 443.756 331.381 448.751 333.369 453.184Z" fill="white" stroke="#19181F" stroke-width="2.52" stroke-miterlimit="10"/>
<path fill-rule="evenodd" clip-rule="evenodd" d="M295.956 399.669C278.875 381.957 269.737 370.239 243.091 390.26C249.27 399.359 261.036 405.508 274.539 405.508C282.561 405.508 289.962 403.336 295.956 399.669Z" fill="white" stroke="#19181F" stroke-width="2.52" stroke-miterlimit="10"/>
<path d="M218.841 388.834C219.394 389.057 220.015 388.795 220.238 388.243C220.461 387.69 220.199 387.069 219.646 386.846L121.046 346.63C120.493 346.406 119.872 346.668 119.649 347.221C119.426 347.774 119.688 348.395 120.241 348.618L218.841 388.834Z" fill="white"/>
<path d="M364.38 353.458C364.933 353.245 365.205 352.624 364.992 352.071C364.778 351.518 364.157 351.247 363.604 351.46L282.231 383.024C281.678 383.237 281.407 383.858 281.62 384.411C281.833 384.964 282.454 385.235 283.007 385.022L364.38 353.458Z" fill="white"/>
<path fill-rule="evenodd" clip-rule="evenodd" d="M208.55 187.191C203.322 179.79 206.183 168.247 208.21 163.697C232.751 162.524 255.866 161.437 275.451 158.75C279.379 163.949 281.746 180.401 277.303 189.354C323.175 196.92 465.028 321.817 327.918 353.012C85.3598 427.673 22.921 265.809 208.56 187.181L208.55 187.191Z" fill="white" stroke="#19181F" stroke-width="2.52" stroke-miterlimit="10"/>
<path d="M272.425 190.886C272.958 190.634 273.191 189.994 272.939 189.46C272.687 188.927 272.047 188.694 271.513 188.946C267.846 190.663 259.844 192.147 251.618 193.011C243.247 193.884 234.701 194.107 230.307 193.253C229.725 193.146 229.163 193.525 229.056 194.107C228.949 194.689 229.328 195.251 229.91 195.358C234.507 196.25 243.296 196.037 251.851 195.145C260.28 194.262 268.545 192.71 272.435 190.886H272.425Z" fill="#19181F"/>
<path d="M303.814 229.085C303.726 228.503 303.173 228.096 302.591 228.183C302.009 228.27 301.602 228.823 301.689 229.405L313.834 315.24C313.921 315.822 314.474 316.23 315.056 316.142C315.521 316.075 315.871 315.706 315.948 315.269C316.191 314.387 317.326 311.826 317.665 310.963C320.924 302.669 328.131 296.51 336.59 292.979C345.097 289.438 354.836 288.556 363.129 290.835C364.177 291.126 365.215 291.466 366.243 291.873C366.796 292.086 367.416 291.815 367.63 291.262C367.843 290.709 367.572 290.088 367.019 289.875C365.952 289.458 364.836 289.089 363.682 288.769C354.933 286.363 344.68 287.285 335.756 291C327.181 294.57 319.809 300.739 316.133 309.042L303.794 229.085H303.814Z" fill="#19181F"/>
<path d="M188.888 236.205C189.005 235.623 188.636 235.06 188.054 234.934C187.472 234.818 186.91 235.186 186.784 235.768L173.136 301.544C173.019 302.126 173.388 302.688 173.97 302.815C174.552 302.941 175.114 302.562 175.241 301.98L188.888 236.205Z" fill="#19181F"/>
<path fill-rule="evenodd" clip-rule="evenodd" d="M327.908 353.022L314.561 316.162L278.4 324.61L235.138 351.121C237.524 355.253 239.202 358.745 245.293 359.055C242.151 362.072 236.583 363.314 234.468 365.36C237.398 372.383 249.688 370.385 251.424 369.502C262.453 381.258 281.94 367.407 289.361 364.856C293.852 365.302 319.537 362.664 327.899 353.032L327.908 353.022Z" fill="white" stroke="#19181F" stroke-width="2.52" stroke-miterlimit="10"/>
<path d="M282.153 351.13C282.648 350.81 282.803 350.151 282.483 349.656C282.163 349.161 281.503 349.006 281.009 349.326L250.861 368.6C250.366 368.92 250.211 369.58 250.531 370.074C250.851 370.569 251.511 370.724 252.006 370.404L282.153 351.13Z" fill="#19181F"/>
<path d="M277.614 339.51C278.089 339.151 278.186 338.482 277.837 338.006C277.478 337.531 276.809 337.434 276.333 337.783C272.822 340.412 264.238 345.98 255.672 351.363C245.798 357.571 235.981 363.508 234.041 364.381C233.498 364.623 233.256 365.253 233.498 365.797C233.741 366.34 234.371 366.582 234.914 366.34C236.951 365.428 246.875 359.424 256.817 353.187C265.44 347.764 274.083 342.158 277.614 339.519V339.51Z" fill="#19181F"/>
<path d="M271.968 329.81C272.473 329.499 272.638 328.84 272.327 328.335C272.017 327.831 271.357 327.666 270.853 327.976L234.575 350.199C234.07 350.509 233.905 351.169 234.216 351.673C234.526 352.178 235.186 352.343 235.69 352.032L271.968 329.81Z" fill="#19181F"/>
<path fill-rule="evenodd" clip-rule="evenodd" d="M174.988 188.888C170.885 191.177 169.061 195.717 170.914 199.025C172.757 202.332 177.587 203.157 181.681 200.868C185.784 198.578 187.608 194.039 185.755 190.731C183.902 187.423 179.081 186.599 174.988 188.888Z" fill="white" stroke="#19181F" stroke-width="2.52" stroke-miterlimit="10"/>
<path fill-rule="evenodd" clip-rule="evenodd" d="M153.25 196.289C159.681 193.166 177.141 191.711 186.832 193.389C192.215 194.32 189.518 204.845 186.424 205.747C188.733 209.258 188.83 215.282 185.697 219.792C187.452 223.09 186.628 229.803 183.475 232.703C180.187 244.11 174.513 244.556 168.169 245.022L168.499 349.559C106.845 348.152 120.396 276.693 140.504 227.465L153.24 196.28L153.25 196.289Z" fill="white" stroke="#19181F" stroke-width="2.52" stroke-miterlimit="10"/>
<path d="M186.327 206.814C186.919 206.862 187.433 206.426 187.481 205.834C187.53 205.242 187.093 204.728 186.502 204.68C183.175 204.398 178.975 204.563 174.91 204.932C169.672 205.417 164.638 206.241 161.932 206.93C161.359 207.076 161.01 207.658 161.146 208.23C161.282 208.802 161.873 209.151 162.446 209.006C165.094 208.337 169.992 207.522 175.104 207.056C179.042 206.697 183.107 206.542 186.327 206.814Z" fill="#19181F"/>
<path d="M185.609 220.83C186.201 220.879 186.715 220.442 186.764 219.85C186.812 219.259 186.376 218.745 185.784 218.696C182.515 218.415 178.635 218.58 174.881 218.958C169.876 219.453 165.113 220.335 162.358 221.034C161.786 221.179 161.437 221.761 161.573 222.334C161.718 222.906 162.3 223.255 162.872 223.119C165.559 222.44 170.215 221.587 175.085 221.102C178.703 220.743 182.457 220.578 185.6 220.85L185.609 220.83Z" fill="#19181F"/>
<path d="M183.485 233.77C184.077 233.77 184.552 233.285 184.552 232.693C184.552 232.102 184.067 231.626 183.475 231.626C179.867 231.646 176.035 231.917 172.495 232.315C168.576 232.761 164.987 233.382 162.455 234.022C161.883 234.168 161.534 234.75 161.67 235.322C161.815 235.894 162.397 236.244 162.97 236.108C165.424 235.487 168.906 234.886 172.718 234.459C176.22 234.061 179.983 233.799 183.475 233.78L183.485 233.77Z" fill="#19181F"/>
<path fill-rule="evenodd" clip-rule="evenodd" d="M197.899 258.457H43.9021L97.9699 373.246H251.957L197.899 258.457Z" fill="white"/>
<path d="M197.715 257.38H42.03L97.1066 374.323H253.471C235.118 335.339 216.756 296.354 198.394 257.38H197.715ZM45.4153 259.533H197.036L250.085 372.179H98.4646L45.4153 259.533Z" fill="#19181F"/>
<path d="M295.821 374.323C296.413 374.323 296.898 373.838 296.898 373.246C296.898 372.655 296.413 372.17 295.821 372.17H97.9605C97.3688 372.17 96.8838 372.655 96.8838 373.246C96.8838 373.838 97.3688 374.323 97.9605 374.323H295.821Z" fill="#19181F"/>
<path d="M147.751 324.989C142.704 324.989 138.613 320.898 138.613 315.851C138.613 310.805 142.704 306.714 147.751 306.714C152.797 306.714 156.888 310.805 156.888 315.851C156.888 320.898 152.797 324.989 147.751 324.989Z" fill="#19181F"/>
</svg>
